# 3ds Max Wavefront OBJ Exporter v0.99 - (c)2007 guruware
# File Created: 16.05.2024 15:27:47

#
# object Wall_LOD1
#

v  -5.0000 0.0000 30.0000
v  -5.0000 0.0000 -30.0000
v  5.0000 0.0000 -30.0000
v  5.0000 0.0000 30.0000
v  -5.0000 10.0000 30.0000
v  5.0000 10.0000 30.0000
v  5.0000 10.0000 -30.0000
v  -5.0000 10.0000 -30.0000
# 8 vertices

vn -0.5774 -0.5774 0.5774
vn -0.5774 -0.5774 -0.5774
vn 0.5774 -0.5774 -0.5774
vn 0.5774 -0.5774 0.5774
vn -0.5774 0.5774 0.5774
vn 0.5774 0.5774 0.5774
vn 0.5774 0.5774 -0.5774
vn -0.5774 0.5774 -0.5774
# 8 vertex normals

vt 0.0000 0.0000 0.0000
vt 0.0000 3.0000 0.0000
vt 0.5000 3.0000 0.0000
vt 0.5000 0.0000 0.0000
vt 0.0000 0.0000 1.0000
vt 0.5000 0.0000 1.0000
vt 0.5000 3.0000 1.0000
vt 0.0000 3.0000 1.0000
vt 0.5000 0.5000 1.0000
vt 0.0000 0.5000 1.0000
vt 0.0000 3.0000 -0.0000
vt 0.5000 3.0000 -0.0000
vt 0.0000 0.5000 0.0000
vt 0.5000 0.5000 0.0000
# 14 texture coords

o Wall_LOD1
g Wall_LOD1
f 1/1/1 2/2/2 3/3/3 4/4/4 
f 5/5/5 6/6/6 7/7/7 8/8/8 
f 1/5/1 4/6/4 6/9/6 5/10/5 
f 4/1/4 3/11/3 7/12/7 6/4/6 
f 3/4/3 2/1/2 8/13/8 7/14/7 
f 2/8/2 1/5/1 5/6/5 8/7/8 
# 6 polygons

