# 3ds Max Wavefront OBJ Exporter v0.99 - (c)2007 guruware
# File Created: 15.05.2024 17:06:52

#
# object Paths
#

v  0.0000 2.5000 10.0707
v  2.0000 12.2290 0.3207
v  -2.0000 12.2290 0.3207
v  0.0000 22.5051 -9.9554
v  -5.9504 2.5056 18.8512
v  -5.9504 2.5071 21.1488
v  0.0000 2.5064 20.0000
v  1.1488 2.5025 13.9196
v  -1.1488 2.5025 13.9196
v  5.9504 2.5071 21.1488
v  5.9504 2.5056 18.8512
v  -1.1488 2.5102 25.9504
v  1.1488 2.5102 25.9504
v  11.9350 2.5064 20.0000
v  0.0000 2.5140 31.9350
v  -11.9350 2.5064 20.0000
v  -5.1528 2.5097 25.1576
v  -6.7774 2.5107 26.7822
v  6.7774 2.5107 26.7822
v  5.1528 2.5097 25.1576
v  5.1528 2.5031 14.8424
v  6.7774 2.5020 13.2178
v  -6.7774 2.5020 13.2178
v  -5.1528 2.5030 14.8424
v  -5.9504 22.5085 -21.1488
v  -5.9504 22.5064 -18.8512
v  0.0000 22.5075 -20.0000
v  1.1488 22.5129 -26.0804
v  -1.1488 22.5129 -26.0804
v  5.9504 22.5065 -18.8512
v  5.9504 22.5085 -21.1488
v  -1.1488 22.5022 -14.0496
v  1.1488 22.5022 -14.0496
v  0.0000 22.5181 -31.9350
v  11.9350 22.5075 -20.0000
v  -11.9350 22.5075 -20.0000
v  -5.1528 22.5029 -14.8424
v  -6.7774 22.5014 -13.2178
v  6.7774 22.5015 -13.2178
v  5.1528 22.5029 -14.8424
v  5.1528 22.5121 -25.1576
v  6.7774 22.5135 -26.7822
v  -6.7774 22.5135 -26.7822
v  -5.1528 22.5121 -25.1576
v  -4.9482 3.5083 19.0447
v  -4.9482 3.5083 20.9553
v  4.9482 3.5083 20.9553
v  4.9482 3.5083 19.0447
v  -0.9553 3.5083 24.9482
v  0.9553 3.5083 24.9482
v  10.0000 3.5083 20.0000
v  0.0000 3.5083 29.9951
v  -10.0000 3.5083 20.0000
v  -4.9482 23.5074 -20.9553
v  -4.9482 23.5074 -19.0447
v  0.9553 23.5074 -25.0563
v  -0.9553 23.5074 -25.0563
v  4.9482 23.5074 -19.0447
v  4.9482 23.5074 -20.9553
v  0.0000 23.5074 -30.0049
v  10.0000 23.5074 -20.0000
v  -10.0000 23.5074 -20.0000
# 62 vertices

vn -0.0000 0.9898 0.1426
vn 0.0000 0.7075 0.7067
vn -0.0000 0.9901 0.1405
vn -0.0000 1.0000 -0.0006
vn -0.0000 0.9996 -0.0287
vn 0.0000 1.0000 -0.0006
vn -0.0000 1.0000 0.0009
vn -0.0000 0.9996 0.0277
vn -0.0000 1.0000 0.0001
vn -0.0003 1.0000 0.0005
vn -0.0003 1.0000 0.0006
vn 0.0003 1.0000 0.0006
vn 0.0003 1.0000 0.0005
vn 0.0997 0.9950 0.0000
vn -0.0997 0.9950 0.0000
vn 0.0000 0.9950 -0.0997
vn -0.0000 1.0000 0.0000
vn 0.0000 1.0000 -0.0000
vn 0.0995 0.9950 0.0000
vn -0.0000 0.9952 0.0977
vn -0.0995 0.9950 -0.0000
vn -0.0000 1.0000 -0.0000
# 22 vertex normals

vt 0.5000 -1.0000 0.0000
vt 1.0000 0.0000 0.0000
vt 0.0000 0.0000 0.0000
vt 0.5000 1.0000 0.0000
vt 0.0000 1.0000 0.0000
# 5 texture coords

o Paths
g Paths
f 1/1/1 2/2/2 3/3/2 
f 2/2/2 4/4/3 3/3/2 
f 5/5/4 6/5/4 7/5/5 
f 8/5/4 9/5/4 7/5/5 
f 10/5/4 11/5/4 7/5/5 
f 12/5/4 13/5/4 7/5/5 
f 8/5/4 1/5/1 9/5/4 
f 10/5/4 14/5/4 11/5/4 
f 12/5/4 15/5/4 13/5/4 
f 5/5/4 16/5/4 6/5/4 
f 17/5/4 18/5/4 15/5/4 
f 17/5/4 16/5/4 18/5/4 
f 19/5/4 20/5/4 15/5/4 
f 19/5/4 14/5/4 20/5/4 
f 21/5/4 22/5/4 1/5/1 
f 21/5/4 14/5/4 22/5/4 
f 23/5/6 24/5/4 1/5/1 
f 23/5/6 16/5/4 24/5/4 
f 25/5/7 26/5/7 27/5/8 
f 28/5/7 29/5/7 27/5/8 
f 30/5/7 31/5/7 27/5/8 
f 32/5/9 33/5/9 27/5/8 
f 28/5/7 34/5/7 29/5/7 
f 30/5/7 35/5/7 31/5/7 
f 32/5/9 4/5/3 33/5/9 
f 25/5/7 36/5/7 26/5/7 
f 37/5/10 38/5/11 4/5/3 
f 37/5/10 36/5/7 38/5/11 
f 39/5/12 40/5/13 4/5/3 
f 39/5/12 35/5/7 40/5/13 
f 41/5/7 42/5/7 34/5/7 
f 41/5/7 35/5/7 42/5/7 
f 43/5/7 44/5/7 34/5/7 
f 43/5/7 36/5/7 44/5/7 
f 45/5/14 46/5/14 7/5/5 
f 47/5/15 48/5/15 7/5/5 
f 49/5/16 50/5/16 7/5/5 
f 47/5/15 51/5/17 48/5/15 
f 49/5/16 52/5/18 50/5/16 
f 45/5/14 53/5/18 46/5/14 
f 54/5/19 55/5/19 27/5/8 
f 56/5/20 57/5/20 27/5/8 
f 58/5/21 59/5/21 27/5/8 
f 56/5/20 60/5/17 57/5/20 
f 58/5/21 61/5/22 59/5/21 
f 54/5/19 62/5/18 55/5/19 
# 0 polygons - 46 triangles

