# 3ds Max Wavefront OBJ Exporter v0.99 - (c)2007 guruware
# File Created: 15.05.2024 16:49:56

#
# object Paths
#

v  -4.9482 3.1000 9.0447
v  -4.9482 3.1000 10.9553
v  -0.0000 2.1000 10.0000
v  4.9482 3.1000 10.9553
v  4.9482 3.1000 9.0447
v  -0.9553 3.1000 14.9482
v  0.9553 3.1000 14.9482
v  10.0000 3.1000 10.0000
v  -0.0000 3.1000 19.9951
v  -10.0000 3.1000 10.0000
v  -4.9482 3.1000 -10.9799
v  -4.9482 3.1000 -9.0693
v  0.0000 2.1000 -10.0246
v  0.9553 3.1000 -15.0808
v  -0.9553 3.1000 -15.0808
v  4.9482 3.1000 -9.0693
v  4.9482 3.1000 -10.9799
v  0.0000 3.1000 -20.0294
v  10.0000 3.1000 -10.0246
v  -10.0000 3.1000 -10.0246
v  -5.9504 2.1000 8.8512
v  -5.9504 2.1000 11.1488
v  1.1488 2.1000 5.8546
v  -1.1488 2.1000 5.8546
v  5.9504 2.1000 11.1488
v  5.9504 2.1000 8.8512
v  -1.1488 2.1000 15.9504
v  1.1488 2.1000 15.9504
v  0.0000 2.1000 -0.0123
v  11.9350 2.1000 10.0000
v  -0.0000 2.1000 21.9350
v  -11.9350 2.1000 10.0000
v  -5.1528 2.1000 15.1576
v  -6.7774 2.1000 16.7822
v  6.7774 2.1000 16.7822
v  5.1528 2.1000 15.1576
v  5.7193 2.1000 6.2841
v  7.1962 2.1000 4.5240
v  -5.7193 2.1000 6.2841
v  -7.1962 2.1000 4.5240
v  -5.9504 2.1000 -8.8758
v  -5.9504 2.1000 -11.1734
v  1.1488 2.1000 -5.8792
v  -1.1488 2.1000 -5.8792
v  5.9504 2.1000 -11.1734
v  5.9504 2.1000 -8.8758
v  -1.1488 2.1000 -15.9750
v  1.1488 2.1000 -15.9750
v  11.9350 2.1000 -10.0246
v  0.0000 2.1000 -21.9596
v  -11.9350 2.1000 -10.0246
v  -5.1528 2.1000 -15.1822
v  -6.7774 2.1000 -16.8068
v  6.7774 2.1000 -16.8068
v  5.1528 2.1000 -15.1822
v  5.7193 2.1000 -6.3086
v  7.1962 2.1000 -4.5486
v  -5.7193 2.1000 -6.3086
v  -7.1962 2.1000 -4.5486
# 59 vertices

vn 0.0995 0.9950 0.0000
vn 0.0000 0.9996 -0.0266
vn -0.0995 0.9950 -0.0000
vn 0.0000 0.9950 -0.0995
vn -0.0000 1.0000 -0.0000
vn 0.0000 1.0000 -0.0000
vn 0.0000 1.0000 0.0000
vn -0.0000 0.9997 0.0256
vn -0.0000 0.9952 0.0977
vn -0.0000 1.0000 0.0000
# 10 vertex normals

vt 0.0000 1.0000 0.0000
# 1 texture coords

o Paths
g Paths
f 1/1/1 2/1/1 3/1/2 
f 4/1/3 5/1/3 3/1/2 
f 6/1/4 7/1/4 3/1/2 
f 4/1/3 8/1/5 5/1/3 
f 6/1/4 9/1/6 7/1/4 
f 1/1/1 10/1/7 2/1/1 
f 11/1/1 12/1/1 13/1/8 
f 14/1/9 15/1/9 13/1/8 
f 16/1/3 17/1/3 13/1/8 
f 14/1/9 18/1/10 15/1/9 
f 16/1/3 19/1/5 17/1/3 
f 11/1/1 20/1/7 12/1/1 
f 21/1/7 22/1/7 3/1/2 
f 23/1/6 24/1/6 3/1/2 
f 25/1/5 26/1/5 3/1/2 
f 27/1/6 28/1/6 3/1/2 
f 23/1/6 29/1/7 24/1/6 
f 25/1/5 30/1/5 26/1/5 
f 27/1/6 31/1/6 28/1/6 
f 21/1/7 32/1/7 22/1/7 
f 33/1/7 34/1/7 31/1/6 
f 33/1/7 32/1/7 34/1/7 
f 35/1/10 36/1/10 31/1/6 
f 35/1/10 30/1/5 36/1/10 
f 37/1/10 38/1/10 29/1/7 
f 37/1/10 30/1/5 38/1/10 
f 39/1/7 29/1/7 40/1/7 
f 39/1/7 40/1/7 32/1/7 
f 41/1/6 13/1/8 42/1/6 
f 43/1/7 13/1/8 44/1/7 
f 45/1/10 13/1/8 46/1/10 
f 47/1/7 13/1/8 48/1/7 
f 43/1/7 44/1/7 29/1/7 
f 45/1/10 46/1/10 49/1/10 
f 47/1/7 48/1/7 50/1/7 
f 41/1/6 42/1/6 51/1/6 
f 52/1/6 50/1/7 53/1/6 
f 52/1/6 53/1/6 51/1/6 
f 54/1/5 50/1/7 55/1/5 
f 54/1/5 55/1/5 49/1/10 
f 56/1/5 29/1/7 57/1/5 
f 56/1/5 57/1/5 49/1/10 
f 58/1/6 59/1/6 29/1/7 
f 58/1/6 51/1/6 59/1/6 
# 0 polygons - 44 triangles

