# 3ds Max Wavefront OBJ Exporter v0.99 - (c)2007 guruware
# File Created: 15.05.2024 15:14:31

#
# object Paths02
#

v  20.0000 4.5462 10.0000
v  10.0000 0.6000 10.0000
v  10.0000 0.6000 15.0000
v  10.0000 0.6000 5.0000
v  0.0000 0.6000 10.0000
v  20.0000 0.6000 17.5000
v  20.0000 0.6000 2.5000
v  10.0000 0.6000 0.0000
v  10.0000 0.6000 20.0000
v  0.0000 4.5462 30.0000
v  0.0000 0.6000 20.0000
v  -5.0000 0.6000 20.0000
v  5.0000 0.6000 20.0000
v  -7.5000 0.6000 30.0000
v  7.5000 0.6000 30.0000
v  -10.0000 0.6000 20.0000
v  -20.0000 4.5462 10.0000
v  -10.0000 0.6000 10.0000
v  -10.0000 0.6000 5.0000
v  -10.0000 0.6000 15.0000
v  -20.0000 0.6000 2.5000
v  -20.0000 0.6000 17.5000
v  -10.0000 0.6000 -0.0000
v  -20.0000 4.5462 -10.0000
v  -10.0000 0.6000 -10.0000
v  -10.0000 0.6000 -15.0000
v  -10.0000 0.6000 -5.0000
v  0.0000 0.6000 -10.0000
v  -20.0000 0.6000 -17.5000
v  -20.0000 0.6000 -2.5000
v  -10.0000 0.6000 -20.0000
v  -0.0000 4.5462 -30.0000
v  -0.0000 0.6000 -20.0000
v  5.0000 0.6000 -20.0000
v  -5.0000 0.6000 -20.0000
v  7.5000 0.6000 -30.0000
v  -7.5000 0.6000 -30.0000
v  10.0000 0.6000 -20.0000
v  20.0000 4.5462 -10.0000
v  10.0000 0.6000 -10.0000
v  10.0000 0.6000 -5.0000
v  10.0000 0.6000 -15.0000
v  20.0000 0.6000 -2.5000
v  20.0000 0.6000 -17.5000
v  5.0000 0.6000 0.0000
v  -0.0000 0.6000 -0.0000
v  -5.0000 0.6000 -0.0000
# 47 vertices

vn -0.2090 0.9779 -0.0000
vn -0.1868 0.9824 -0.0000
vn -0.1201 0.9891 0.0848
vn -0.1201 0.9891 -0.0848
vn -0.0000 1.0000 -0.0000
vn -0.0870 0.9335 0.3480
vn -0.0870 0.9335 -0.3480
vn 0.0000 1.0000 0.0000
vn 0.0000 0.9779 -0.2090
vn 0.0000 0.9824 -0.1868
vn -0.0848 0.9891 -0.1201
vn 0.0848 0.9891 -0.1201
vn -0.3480 0.9335 -0.0870
vn 0.3480 0.9335 -0.0870
vn -0.0000 1.0000 0.0000
vn 0.2090 0.9779 -0.0000
vn 0.1868 0.9824 0.0000
vn 0.1201 0.9891 -0.0848
vn 0.1201 0.9891 0.0848
vn 0.0870 0.9335 -0.3480
vn 0.0870 0.9335 0.3480
vn 0.2090 0.9779 0.0000
vn 0.0000 1.0000 -0.0000
vn -0.0000 0.9779 0.2090
vn -0.0000 0.9824 0.1868
vn 0.0848 0.9891 0.1201
vn -0.0848 0.9891 0.1201
vn 0.3480 0.9335 0.0870
vn -0.3480 0.9335 0.0870
# 29 vertex normals

vt 0.0000 0.5000 0.0000
vt 0.5000 0.5000 0.0000
vt 0.5000 0.7500 0.0000
vt 0.5000 0.2500 0.0000
vt 1.0000 0.5000 0.0000
# 5 texture coords

o Paths02
g Paths02
f 1/1/1 2/2/2 3/3/3 
f 4/4/4 5/5/5 2/2/2 
f 1/1/1 3/3/3 6/1/6 
f 4/4/4 7/1/7 8/4/8 
f 4/4/4 1/1/1 7/1/7 
f 3/3/3 9/3/8 6/1/6 
f 1/1/1 4/4/4 2/2/2 
f 5/5/5 3/3/3 2/2/2 
f 10/1/9 11/2/10 12/3/11 
f 13/4/12 5/5/5 11/2/10 
f 10/1/9 12/3/11 14/1/13 
f 13/4/12 15/1/14 9/4/8 
f 13/4/12 10/1/9 15/1/14 
f 12/3/11 16/3/15 14/1/13 
f 10/1/9 13/4/12 11/2/10 
f 5/5/5 12/3/11 11/2/10 
f 17/1/16 18/2/17 19/3/18 
f 20/4/19 5/5/5 18/2/17 
f 17/1/16 19/3/18 21/1/20 
f 20/4/19 22/1/21 16/4/15 
f 20/4/19 17/1/16 22/1/21 
f 19/3/18 23/3/15 21/1/20 
f 17/1/16 20/4/19 18/2/17 
f 5/5/5 19/3/18 18/2/17 
f 24/1/22 25/2/17 26/3/18 
f 27/4/19 28/5/23 25/2/17 
f 24/1/22 26/3/18 29/1/20 
f 27/4/19 30/1/21 23/4/15 
f 27/4/19 24/1/22 30/1/21 
f 26/3/18 31/3/5 29/1/20 
f 24/1/22 27/4/19 25/2/17 
f 28/5/23 26/3/18 25/2/17 
f 32/1/24 33/2/25 34/3/26 
f 35/4/27 28/5/23 33/2/25 
f 32/1/24 34/3/26 36/1/28 
f 35/4/27 37/1/29 31/4/5 
f 35/4/27 32/1/24 37/1/29 
f 34/3/26 38/3/23 36/1/28 
f 32/1/24 35/4/27 33/2/25 
f 28/5/23 34/3/26 33/2/25 
f 39/1/1 40/2/2 41/3/3 
f 42/4/4 28/5/23 40/2/2 
f 39/1/1 41/3/3 43/1/6 
f 42/4/4 44/1/7 38/4/23 
f 42/4/4 39/1/1 44/1/7 
f 41/3/3 8/3/8 43/1/6 
f 39/1/1 42/4/4 40/2/2 
f 28/5/23 41/3/3 40/2/2 
f 45/4/15 28/5/23 46/2/23 
f 28/5/23 47/3/23 46/2/23 
f 47/4/23 5/5/5 46/2/23 
f 5/5/5 45/3/15 46/2/23 
# 0 polygons - 52 triangles

