# 3ds Max Wavefront OBJ Exporter v0.99 - (c)2007 guruware
# File Created: 16.05.2024 14:11:47

#
# object Plane
#

v  -20.0000 2.0000 10.0000
v  20.0000 2.0000 10.0000
v  20.0000 82.0000 -70.0000
v  -20.0000 82.0000 -70.0000
v  20.0000 82.0000 -90.0000
v  -20.0000 82.0000 -90.0000
v  -20.0000 2.0000 30.0000
v  20.0000 2.0000 30.0000
# 8 vertices

vn 0.0000 0.9239 0.3827
vn 0.0000 1.0000 0.0000
vn 0.0000 1.0000 -0.0000
# 3 vertex normals

vt 0.0000 1.0000 0.0000
vt 2.0000 1.0000 0.0000
vt 2.0000 5.0000 1.0000
vt 0.0000 5.0000 1.0000
vt 2.0000 6.0000 1.0000
vt 0.0000 6.0000 1.0000
vt 0.0000 0.0000 0.0000
vt 2.0000 0.0000 0.0000
# 8 texture coords

o Plane
g Plane
f 1/1/1 2/2/1 3/3/1 4/4/1 
f 4/4/1 3/3/1 5/5/2 6/6/3 
f 7/7/3 8/8/3 2/2/1 1/1/1 
# 3 polygons

