# 3ds Max Wavefront OBJ Exporter v0.99 - (c)2007 guruware
# File Created: 15.05.2024 17:09:01

#
# object Component02
#

v  -10.0000 0.0000 20.0000
v  10.0000 0.0000 20.0000
v  10.0000 2.0000 20.0000
v  -10.0000 2.0000 20.0000
v  10.0000 40.0000 -20.0000
v  -10.0000 40.0000 -20.0000
v  10.0000 42.0000 -20.0000
v  -10.0000 42.0000 -20.0000
# 8 vertices

vn -0.5469 -0.7735 0.3204
vn 0.5469 -0.7735 0.3204
vn 0.6303 0.2971 0.7173
vn -0.6303 0.2971 0.7173
vn 0.6303 -0.2971 -0.7173
vn -0.6303 -0.2971 -0.7173
vn 0.5469 0.7735 -0.3204
vn -0.5469 0.7735 -0.3204
# 8 vertex normals

vt 0.0000 0.0000 0.0000
vt 1.0000 0.0000 0.0000
vt 1.0000 1.0000 0.0000
vt 0.0000 1.0000 0.0000
vt 0.0000 -1.0000 0.0000
vt 1.0000 -1.0000 0.0000
vt -1.0000 1.0000 0.0000
vt -1.0000 0.0000 0.0000
vt 2.0000 0.0000 0.0000
vt 2.0000 1.0000 0.0000
# 10 texture coords

o Component02
g Component02
f 1/1/1 2/2/2 3/3/3 4/4/4 
f 5/4/5 2/5/2 1/6/1 6/3/6 
f 4/5/4 3/6/3 7/3/7 8/4/8 
f 7/3/7 3/7/3 2/8/2 5/2/5 
f 5/1/5 6/2/6 8/3/8 7/4/7 
f 6/1/6 1/9/1 4/10/4 8/4/8 
# 6 polygons

