# 3ds Max Wavefront OBJ Exporter v0.99 - (c)2007 guruware
# File Created: 15.05.2024 17:09:02

#
# object Paths
#

v  -0.0000 4.0000 20.0707
v  2.0000 24.0000 0.0707
v  -2.0000 24.0000 0.0707
v  -0.0000 44.0000 -19.9293
v  -5.9504 44.0292 -31.1439
v  -5.9504 44.0292 -28.8464
v  -0.0000 44.0292 -29.9951
v  1.1488 44.0292 -36.0755
v  -1.1488 44.0292 -36.0755
v  5.9504 44.0292 -28.8464
v  5.9504 44.0292 -31.1439
v  -1.1488 44.0292 -24.0447
v  1.1488 44.0292 -24.0447
v  -0.0000 44.0292 -41.9301
v  11.9350 44.0292 -29.9951
v  -11.9350 44.0292 -29.9951
v  -5.1528 44.0292 -24.8375
v  -6.7774 44.0292 -23.2129
v  6.7774 44.0292 -23.2129
v  5.1528 44.0292 -24.8375
v  5.1528 44.0292 -35.1528
v  6.7774 44.0292 -36.7774
v  -6.7774 44.0292 -36.7774
v  -5.1528 44.0292 -35.1527
v  -5.9504 4.0292 28.8512
v  -5.9504 4.0292 31.1488
v  0.0000 4.0292 30.0000
v  1.1488 4.0292 23.9196
v  -1.1488 4.0292 23.9196
v  5.9504 4.0292 31.1488
v  5.9504 4.0292 28.8512
v  -1.1488 4.0292 35.9504
v  1.1488 4.0292 35.9504
v  11.9350 4.0292 30.0000
v  0.0000 4.0292 41.9350
v  -11.9350 4.0292 30.0000
v  -5.1528 4.0292 35.1576
v  -6.7774 4.0292 36.7822
v  6.7774 4.0292 36.7822
v  5.1528 4.0292 35.1576
v  5.1528 4.0292 24.8424
v  6.7774 4.0292 23.2178
v  -6.7774 4.0292 23.2178
v  -5.1528 4.0292 24.8424
v  -4.9482 5.0292 29.0447
v  -4.9482 5.0292 30.9553
v  4.9482 5.0292 30.9553
v  4.9482 5.0292 29.0447
v  -0.9553 5.0292 34.9482
v  0.9553 5.0292 34.9482
v  10.0000 5.0292 30.0000
v  0.0000 5.0292 39.9951
v  -10.0000 5.0292 30.0000
v  -4.9482 45.0292 -30.9504
v  -4.9482 45.0292 -29.0398
v  0.9553 45.0292 -35.0514
v  -0.9553 45.0292 -35.0514
v  4.9482 45.0292 -29.0398
v  4.9482 45.0292 -30.9504
v  -0.0000 45.0292 -40.0000
v  10.0000 45.0292 -29.9951
v  -10.0000 45.0292 -29.9951
# 62 vertices

vn 0.0000 0.9974 0.0716
vn 0.0000 0.7071 0.7071
vn -0.0000 0.9965 0.0832
vn 0.0000 1.0000 0.0000
vn 0.0000 0.9996 0.0272
vn -0.0000 1.0000 0.0000
vn -0.0000 1.0000 -0.0000
vn -0.0000 1.0000 0.0034
vn 0.0015 1.0000 0.0015
vn 0.0013 1.0000 0.0013
vn -0.0013 1.0000 0.0013
vn -0.0015 1.0000 0.0015
vn 0.0000 1.0000 -0.0000
vn 0.0000 0.9996 -0.0283
vn 0.0000 1.0000 -0.0036
vn -0.0016 1.0000 -0.0016
vn -0.0014 1.0000 -0.0014
vn 0.0014 1.0000 -0.0014
vn 0.0016 1.0000 -0.0016
vn 0.0995 0.9950 0.0000
vn -0.0995 0.9950 -0.0000
vn -0.0000 0.9950 -0.0995
vn -0.0000 0.9952 0.0977
# 23 vertex normals

vt 0.5000 -1.0000 0.0000
vt 1.0000 0.0000 0.0000
vt 0.0000 0.0000 0.0000
vt 0.5000 1.0000 0.0000
vt 0.0000 1.0000 0.0000
# 5 texture coords

o Paths
g Paths
f 1/1/1 2/2/2 3/3/2 
f 2/2/2 4/4/3 3/3/2 
f 5/5/4 6/5/4 7/5/5 
f 8/5/6 9/5/6 7/5/5 
f 10/5/7 11/5/7 7/5/5 
f 12/5/8 13/5/8 7/5/5 
f 8/5/6 14/5/6 9/5/6 
f 10/5/7 15/5/7 11/5/7 
f 12/5/8 4/5/3 13/5/8 
f 5/5/4 16/5/4 6/5/4 
f 17/5/9 18/5/10 4/5/3 
f 17/5/9 16/5/4 18/5/10 
f 19/5/11 20/5/12 4/5/3 
f 19/5/11 15/5/7 20/5/12 
f 21/5/6 22/5/6 14/5/6 
f 21/5/6 15/5/7 22/5/6 
f 23/5/4 24/5/4 14/5/6 
f 23/5/4 16/5/4 24/5/4 
f 25/5/13 26/5/13 27/5/14 
f 28/5/15 29/5/15 27/5/14 
f 30/5/7 31/5/7 27/5/14 
f 32/5/13 33/5/13 27/5/14 
f 28/5/15 1/5/1 29/5/15 
f 30/5/7 34/5/7 31/5/7 
f 32/5/13 35/5/13 33/5/13 
f 25/5/13 36/5/13 26/5/13 
f 37/5/13 38/5/13 35/5/13 
f 37/5/13 36/5/13 38/5/13 
f 39/5/7 40/5/7 35/5/13 
f 39/5/7 34/5/7 40/5/7 
f 41/5/16 42/5/17 1/5/1 
f 41/5/16 34/5/7 42/5/17 
f 43/5/18 44/5/19 1/5/1 
f 43/5/18 36/5/13 44/5/19 
f 45/5/20 46/5/20 27/5/14 
f 47/5/21 48/5/21 27/5/14 
f 49/5/22 50/5/22 27/5/14 
f 47/5/21 51/5/13 48/5/21 
f 49/5/22 52/5/7 50/5/22 
f 45/5/20 53/5/13 46/5/20 
f 54/5/20 55/5/20 7/5/5 
f 56/5/23 57/5/23 7/5/5 
f 58/5/21 59/5/21 7/5/5 
f 56/5/23 60/5/13 57/5/23 
f 58/5/21 61/5/13 59/5/21 
f 54/5/20 62/5/7 55/5/20 
# 0 polygons - 46 triangles

